<svg xmlns="http://www.w3.org/2000/svg" width="285" height="54" fill="none" viewBox="0 0 285 54">
  <g transform="matrix(.8660254 -.5 .5 .8660254 4.731932 28.65981)">
    <rect width="10" height="43.5" x="55.8" y="5.5" fill="#af7ab2" rx="5"/>
    <rect width="10" height="43.5" x="55.8" y="5.5" fill="#000" fill-opacity=".2" rx="5"/>
    <rect width="10" height="43.5" x="55.8" y="5.5" fill="#000" fill-opacity=".2" rx="5"/>
  </g>
  <rect width="10" height="44" x="40.8" y="41.5" fill="#fd6120" rx="5" transform="matrix(0 -1 1 0 -.6541 82.3459)"/>
  <rect width="10" height="43.7" x="47.7" y="43.3" fill="#a6dae9" rx="5" transform="matrix(-.8660254 -.5 .5 -.8660254 67.266131 104.700705)"/>
  <path fill="#000" d="M142.4 41.5v-26.5c0-3.2-.7-5.7-2.1-7.3-1.4-1.6-3.5-2.4-6.5-2.4-3.8 0-6.7 1.1-8.5 3.3-1.8 2.2-2.7 5.6-2.7 10.2v22.7h-6.2v-26.5c0-3.2-.7-5.7-2.1-7.3-1.4-1.6-3.5-2.4-6.5-2.4-3.9 0-6.7 1.2-8.5 3.5-1.8 2.3-2.7 6.1-2.7 11.4v21.3h-6.2v-40.7h5l1 5.6h.3c1.2-2 2.8-3.5 4.9-4.6 2.1-1.1 4.5-1.7 7.1-1.7 6.4 0 10.5 2.3 12.5 6.9h.3c1.2-2.1 3-3.8 5.3-5 2.3-1.2 4.9-1.9 7.9-1.9 4.6 0 8 1.2 10.3 3.6 2.3 2.4 3.5 6.1 3.5 11.3v26.5zm37.8.7c-2.6 0-5.1-.5-7.3-1.4-2.2-1-4-2.5-5.5-4.5h-.4c.3 2.4.4 4.6.4 6.8v16.7h-6.2v-58.9h5l.9 5.6h.3c1.6-2.2 3.4-3.8 5.5-4.8 2.1-1 4.5-1.5 7.2-1.5 5.4 0 9.5 1.8 12.5 5.5 2.9 3.7 4.4 8.9 4.4 15.5 0 6.7-1.5 11.9-4.5 15.6-3 3.7-7.1 5.5-12.4 5.5zm-.9-36.9c-4.2 0-7.2 1.2-9 3.5-1.9 2.3-2.8 6-2.9 11v1.4c0 5.7 1 9.8 2.9 12.3 1.9 2.4 5 3.7 9.2 3.7 3.5 0 6.3-1.4 8.2-4.3 2-2.8 3-6.8 3-11.8 0-5.1-1-9-3-11.7-2-2.7-4.8-4.1-8.4-4.1zm34.4-4.5v26.4c0 3.3.8 5.8 2.3 7.4s3.9 2.4 7.1 2.4c4.3 0 7.4-1.2 9.3-3.5 2-2.3 3-6.1 3-11.4v-21.4h6.2v40.7h-5.1l-.9-5.5h-.3c-1.3 2-3 3.5-5.3 4.6-2.2 1.1-4.8 1.6-7.6 1.6-4.9 0-8.7-1.2-11.1-3.5-2.4-2.4-3.7-6.1-3.7-11.3v-26.6zm67.1 29.6c0 3.8-1.4 6.7-4.2 8.8-2.8 2.1-6.8 3.1-11.9 3.1-5.4 0-9.6-.9-12.6-2.6v-5.7c2 1 4 1.8 6.3 2.3 2.3.6 4.4.9 6.5.9 3.2 0 5.7-.5 7.4-1.5 1.7-1 2.6-2.6 2.6-4.7 0-1.6-.7-2.9-2.1-4-1.4-1.1-4-2.5-8-4-3.8-1.4-6.5-2.6-8.1-3.7-1.6-1.1-2.8-2.3-3.6-3.6-.8-1.3-1.1-2.9-1.1-4.8 0-3.3 1.3-5.9 4-7.8 2.7-1.9 6.4-2.9 11.1-2.9 4.4 0 8.7.9 12.8 2.7l-2.2 5c-4.1-1.7-7.8-2.5-11.1-2.5-2.9 0-5.1.5-6.6 1.4-1.5.9-2.2 2.2-2.2 3.8 0 1.1.3 2 .8 2.8.6.8 1.5 1.5 2.7 2.2s3.6 1.7 7.1 3c4.8 1.8 8.1 3.5 9.8 5.3 1.7 1.8 2.6 4 2.6 6.7zM22.8 42.2c-5.9 0-10.5-1.8-13.7-5.4-3.2-3.6-4.8-8.8-4.8-15.4 0-6.8 1.6-12.1 4.9-15.8 3.3-3.7 8-5.6 14-5.6 2 0 3.9.2 5.9.6 2 .4 3.5.9 4.6 1.5l-1.9 5.2c-1.4-.5-2.8-1-4.5-1.3-1.6-.4-3-.6-4.3-.6-8.3 0-12.4 5.3-12.4 15.8 0 5 1 8.8 3 11.5 2 2.7 5 4 9 4 3.4 0 6.9-.7 10.4-2.2v5.5c-2.7 1.4-6.1 2.1-10.3 2.1z"/>
</svg>