<svg xmlns="http://www.w3.org/2000/svg" width="112" height="32" fill="none" viewBox="0 0 112 32">
  <path fill="#0e303f" d="M21 8.9c-.4-.6-.9-1.2-1.5-1.7-.6-.5-1.3-.9-2-1.1-.8-.3-1.6-.4-2.4-.4-1.5 0-2.8.3-3.9.9-1.1.6-1.9 1.3-2.6 2.3-.7 1-1.1 2.1-1.4 3.4-.3 1.2-.4 2.6-.4 3.9 0 1.3.1 2.5.4 3.7.3 1.2.8 2.3 1.4 3.3.7 1 1.5 1.7 2.6 2.3 1 .6 2.3.9 3.9.9 2 0 3.7-.6 4.8-1.9 1.1-1.2 1.9-2.9 2.1-5h6.5c-.2 1.9-.6 3.7-1.3 5.2s-1.6 2.8-2.8 3.9c-1.2 1.1-2.5 1.9-4.1 2.5-1.6.6-3.3.9-5.2.9-2.3 0-4.5-.4-6.3-1.2-1.9-.8-3.5-1.9-4.8-3.4-1.3-1.4-2.3-3.1-3-5-.7-1.9-1-4-1-6.2 0-2.3.3-4.4 1-6.3.7-1.9 1.7-3.7 3-5.1 1.3-1.5 2.8-2.6 4.8-3.4 1.9-.8 4-1.2 6.3-1.2 1.7 0 3.3.3 4.8.7 1.5.5 2.8 1.2 4 2.1 1.2.9 2.2 2.1 2.9 3.5.8 1.4 1.2 2.9 1.5 4.7h-6.5c-.1-.7-.3-1.4-.7-2.1zM47.4.8l11.4 30.5h-7l-2.3-6.8h-11.4l-2.4 6.8h-6.7l11.6-30.5zm.4 18.7-3.9-11.2h-.1l-4 11.2zM66.7 23.8c.4.7.9 1.3 1.5 1.7.6.4 1.3.8 2.2 1 .8.2 1.7.3 2.6.3.6 0 1.2-.1 1.9-.1.7-.1 1.3-.3 1.9-.6s1.1-.7 1.5-1.2c.4-.5.6-1.1.6-1.9 0-.8-.3-1.5-.8-2-.5-.5-1.2-.9-2.1-1.3-.9-.3-1.8-.6-2.9-.9-1.1-.3-2.2-.5-3.3-.9-1.2-.3-2.3-.6-3.3-1.1-1.1-.4-2-.9-2.9-1.6-.9-.7-1.6-1.5-2.1-2.4-.5-1-.8-2.2-.8-3.6 0-1.6.3-2.9 1-4.1.7-1.2 1.6-2.1 2.6-2.9 1.1-.8 2.3-1.3 3.7-1.7 1.3-.4 2.7-.5 4.1-.5 1.6 0 3.1.2 4.6.5 1.5.4 2.8.9 3.9 1.7 1.2.8 2 1.8 2.7 3.1.7 1.2 1 2.7 1 4.5h-6.5c-.1-.9-.3-1.7-.6-2.3-.3-.6-.8-1.1-1.3-1.4-.5-.3-1.2-.6-1.9-.7-.7-.1-1.5-.2-2.3-.2-.5 0-1.1.1-1.6.2-.5.1-1 .3-1.5.6-.4.3-.8.6-1.1 1.1-.3.4-.4 1-.4 1.6 0 .6.1 1.1.3 1.5.2.4.7.7 1.3 1 .7.3 1.6.6 2.8.9 1.2.3 2.7.7 4.6 1.2.6.1 1.3.3 2.4.6 1 .3 2 .8 3 1.4 1 .7 1.9 1.5 2.6 2.6s1.1 2.5 1.1 4.2c0 1.4-.3 2.7-.8 3.9-.5 1.2-1.3 2.2-2.4 3.1-1.1.9-2.4 1.5-4 2-1.6.5-3.4.7-5.5.7-1.7 0-3.3-.2-4.9-.6-1.6-.4-3-1.1-4.2-1.9-1.2-.9-2.2-2-2.9-3.4-.7-1.3-1.1-3-1-4.9h6.5c0 1 .2 1.8.5 2.6zM86.9 6.4v-5.6h25.1v5.7h-9.2v24.9h-6.7v-24.9z"/>
</svg>