<svg xmlns="http://www.w3.org/2000/svg" width="235" height="40" fill="none" viewBox="0 0 235 40">
  <path fill="#0e303f" d="M23.3 22.5h4.2l1.7-6.7h-5.8v-3.3c0-1.7 0-3.3 3.3-3.3h2.5v-5.6c-.5-.1-2.6-.2-4.8-.2-4.5 0-7.7 2.8-7.7 7.8v4.7h-5v6.7h5v14.2h6.7zM78 3.3h14c5.3 0 9.7 4.3 9.7 9.7v14c0 2.6-1 5-2.8 6.8-1.8 1.8-4.3 2.8-6.8 2.8h-14c-5.3 0-9.7-4.3-9.7-9.7v-14c0-2.6 1-5 2.8-6.8 1.8-1.8 4.3-2.8 6.8-2.8zm-.3 3.3c-1.6 0-3.1.6-4.2 1.8-1.1 1.1-1.8 2.7-1.8 4.2v14.7c0 3.3 2.7 6 6 6h14.7c1.6 0 3.1-.6 4.2-1.8s1.8-2.7 1.8-4.2v-14.7c0-3.3-2.7-6-6-6zm16.1 2.5c.6 0 1.1.2 1.5.6.4.4.6.9.6 1.5s-.2 1.1-.6 1.5-.9.6-1.5.6c-.6 0-1.1-.2-1.5-.6s-.6-.9-.6-1.5.2-1.1.6-1.5c.4-.4.9-.6 1.5-.6zm-8.7 2.5c2.2 0 4.3.9 5.9 2.4s2.4 3.7 2.4 5.9-.9 4.3-2.4 5.9-3.7 2.4-5.9 2.4c-2.2 0-4.3-.9-5.9-2.4s-2.4-3.7-2.4-5.9.9-4.3 2.4-5.9 3.7-2.4 5.9-2.4zm0 3.3c-1.3 0-2.6.5-3.5 1.5s-1.5 2.2-1.5 3.5.5 2.6 1.5 3.5c.9.9 2.2 1.5 3.5 1.5 1.3 0 2.6-.5 3.5-1.5.9-.9 1.5-2.2 1.5-3.5s-.5-2.6-1.5-3.5-2.2-1.5-3.5-1.5zM167 9.4c-1.3.6-2.6.9-4 1.1 1.5-.9 2.5-2.2 3.1-3.9-1.4.8-2.9 1.4-4.4 1.7-1-1.1-2.4-1.9-4-2.1-1.5-.3-3.1 0-4.4.7-1.4.7-2.4 1.9-3.1 3.3-.6 1.4-.8 3-.4 4.5-2.8-.1-5.5-.9-8-2.1-2.5-1.3-4.7-3-6.4-5.2-.6 1.1-.9 2.3-.9 3.5 0 2.4 1.2 4.6 3.1 5.8-1.1 0-2.2-.3-3.2-.9v.1c0 1.6.6 3.2 1.6 4.4 1 1.2 2.4 2.1 4 2.4-1 .3-2.1.3-3.1.1.4 1.4 1.3 2.6 2.5 3.5s2.6 1.3 4 1.4c-1.4 1.1-3.1 2-4.9 2.5s-3.6.6-5.4.4c3.2 2 6.9 3.1 10.7 3.1 12.8 0 19.8-10.6 19.8-19.8 0-.3 0-.6 0-.9 1.4-1 2.5-2.2 3.5-3.6zM211.7 25l8.7-5-8.6-5zm19.3-13c.2.8.4 1.8.5 3.2.1 1.3.2 2.5.2 3.5l.1 1.4c0 3.7-.3 6.3-.7 8.1-.4 1.5-1.4 2.5-2.9 2.9-.8.2-2.2.4-4.4.5-2.2.1-4.1.2-6 .2l-2.6.1c-7 0-11.3-.3-13-.7-1.5-.4-2.5-1.4-2.9-2.9-.2-.8-.4-1.8-.5-3.2-.1-1.3-.2-2.5-.2-3.5l-.1-1.4c0-3.6.3-6.3.7-8 .4-1.5 1.4-2.5 2.9-2.9.8-.2 2.2-.4 4.4-.5 2.2-.1 4.2-.2 6-.2l2.7-.1c7 0 11.3.3 13.1.7 1.5.4 2.5 1.4 2.9 2.9z"/>
</svg>